inDegrees=no
num_controls=7
num_derivatives=13
num_iterations=73
num_multipliers=7
num_parameters=0
num_slacks=7
num_states=26
objective=0.334212
objective_accelerations=0.036721
objective_balance=0.001267
objective_effort=0.027458
objective_height=0.267110
objective_ligament=0.001656
solver_duration=763.964998
status=Solve_Succeeded
success=true
DataType=double
version=3
OpenSimVersion=4.5
endheader
time	/jointset/ground_pelvis/pelvis_tilt/value	/jointset/ground_pelvis/pelvis_tx/value	/jointset/ground_pelvis/pelvis_ty/value	/jointset/hip_r/hip_flexion_r/value	/jointset/hip_r/hip_adduction_r/value	/jointset/hip_r/hip_rotation_r/value	/jointset/back/lumbar_extension/value	/jointset/patellofemoral_r/patellar_flexion_r/value	/jointset/knee_r/knee_flexion_r/value	/jointset/knee_r/knee_adduction_r/value	/jointset/knee_r/knee_rotation_r/value	/jointset/ankle_r/ankle_angle_r/value	/jointset/subtalar_r/subtalar_angle_r/value	/jointset/ground_pelvis/pelvis_tilt/speed	/jointset/ground_pelvis/pelvis_tx/speed	/jointset/ground_pelvis/pelvis_ty/speed	/jointset/hip_r/hip_flexion_r/speed	/jointset/hip_r/hip_adduction_r/speed	/jointset/hip_r/hip_rotation_r/speed	/jointset/back/lumbar_extension/speed	/jointset/patellofemoral_r/patellar_flexion_r/speed	/jointset/knee_r/knee_flexion_r/speed	/jointset/knee_r/knee_adduction_r/speed	/jointset/knee_r/knee_rotation_r/speed	/jointset/ankle_r/ankle_angle_r/speed	/jointset/subtalar_r/subtalar_angle_r/speed	/forceset/tau_hip_flexion_r	/forceset/tau_hip_adduction_r	/forceset/tau_hip_rotation_r	/forceset/tau_knee_flexion_r	/forceset/tau_ankle_angle_r	/forceset/tau_subtalar_angle_r	/forceset/tau_lumbar_extension	lambda_cid13_p0	lambda_cid14_p0	lambda_cid14_p1	lambda_cid14_p2	lambda_cid14_p3	lambda_cid14_p4	lambda_cid14_p5	/jointset/ground_pelvis/pelvis_tilt/accel	/jointset/ground_pelvis/pelvis_tx/accel	/jointset/ground_pelvis/pelvis_ty/accel	/jointset/hip_r/hip_flexion_r/accel	/jointset/hip_r/hip_adduction_r/accel	/jointset/hip_r/hip_rotation_r/accel	/jointset/back/lumbar_extension/accel	/jointset/patellofemoral_r/patellar_flexion_r/accel	/jointset/knee_r/knee_flexion_r/accel	/jointset/knee_r/knee_adduction_r/accel	/jointset/knee_r/knee_rotation_r/accel	/jointset/ankle_r/ankle_angle_r/accel	/jointset/subtalar_r/subtalar_angle_r/accel	gamma_cid13_p0	gamma_cid14_p0	gamma_cid14_p1	gamma_cid14_p2	gamma_cid14_p3	gamma_cid14_p4	gamma_cid14_p5
0.5	-0.1707891389683105	0.03120447621033943	0.8049391889482462	0.916310278677913	-0.2424646004939578	-0.07552987364840291	-0.6467507474407638	0.9576800237106763	0.9576800237107296	0.02487637771422558	0.1744768415682089	0.2927272421749331	0.1069332191944596	-0.4274059077949217	-0.2057154097807442	-0.5034113080210766	1.939359332969956	-0.007811274976079975	0.3494955739123618	-0.7383858436561167	1.943745803432312	1.943745803432269	-0.2942162528300251	-0.0002716097709742805	0.529971008738831	0.1728857383808302	-0.2143886513135419	0.02092029103611378	0.02858285941688792	-0.2695358981170323	-0.01857046352781152	-0.01448390863647893	0.2493211111699357	-7.926886069166267	-49.09745408388564	-13.96028013161287	1.589081252267419	-2.789283653456465	-640.6516193234014	48.7421225043919	0.3541777754886038	0.5891322589347641	-0.4223750737625862	-1.316350218868336	-0.04039747370265896	-0.3530708266970561	1.844494935921702	-1.391866500752597	-1.391866500752598	0.5359409272424782	-0.0587369329438716	-0.550522338771523	-0.09369811164838628	-8.872431372162302e-09	1.512553573106443e-07	2.524721483472442e-06	1.501006367594575e-06	-3.739161366401082e-07	-1.042634553121009e-08	1.596944587621135e-06
0.51	-0.1750445505605965	0.02917694919566776	0.799885137775765	0.9356350183176446	-0.2425448463207854	-0.07205661220064349	-0.6540418055899375	0.9770447881719617	0.9770447881719782	0.02195862844145346	0.1744739848424445	0.2979984537973541	0.1086569050684981	-0.4236065752445927	-0.1997739777562538	-0.5072851799472491	1.925326208971253	-0.008233583489200186	0.345129920885227	-0.7197374413001755	1.928939777246591	1.928939777246595	-0.2893303797365597	-0.0002980710566944343	0.5241911048248805	0.1718241212856509	-0.2213877555302852	0.0223756253392166	0.0287599616335422	-0.2739053620435821	-0.02013218870372927	-0.01417536533821361	0.255654916599307	-6.990423473906957	-49.92353074444635	-14.12939156817136	1.797054358770698	-2.656707407522236	-645.7581695271057	48.74458510842813	0.4033016695468011	0.5989762232769753	-0.3528337608606492	-1.486131269857932	-0.04213513800428254	-0.4823522856283085	1.888264617242169	-1.565065550925595	-1.565065550918592	0.4657393483060264	0.02601026226936515	-0.6038395154534874	-0.115918581424747	-8.613279202787207e-09	1.466895214019169e-07	2.473692526983581e-06	1.437663107565721e-06	-3.676207842394389e-07	-1.355249031974019e-08	1.62023609215624e-06
0.52	-0.1792598706924312	0.0272093020110552	0.7947957597822586	0.9548115591614922	-0.2426291127523197	-0.0686278152321375	-0.6611437293691895	0.9962534733967037	0.9962534733966797	0.01908990366920639	0.1744709857015505	0.3032094433610858	0.1103692697569908	-0.4193876157045925	-0.1937394437689198	-0.5104766722260803	1.909719573793087	-0.008615395917826318	0.3406026780618288	-0.7005589696717617	1.912529956123119	1.912529956123169	-0.2844113527267981	-0.0003000927961965949	0.517926597001062	0.1706215012715903	-0.2283868597470261	0.02383095964232509	0.02893706385016281	-0.2782748259701344	-0.02169391387964639	-0.01386682203993923	0.26198872202868	-6.115621072038694	-50.74824961784297	-14.29478070556279	2.000455299651557	-2.541249187662102	-650.844876075866	48.74565132901744	0.4381031734229101	0.6077526515034541	-0.2858991442943429	-1.631052454760747	-0.03229825680384742	-0.3853887859497538	1.950508790416254	-1.71262548830286	-1.712625488302863	0.5425717105017206	-0.05384902370026201	-0.6474431207452072	-0.121898695424638	-7.191913904510286e-09	1.405450247536841e-07	2.375156795728178e-06	1.357327809911765e-06	-3.551316403651461e-07	-1.580007991326816e-08	1.60933119786847e-06
0.53	-0.1834309701255571	0.02530241188557522	0.7896779020151256	0.9738243221155334	-0.2427170441666646	-0.06524480134007205	-0.668051299062588	1.01529022263843	1.015290222638369	0.01627071851089138	0.1744679038844208	0.3083554473651989	0.1120688276839965	-0.4147644998022152	-0.1876274837699684	-0.5129777666643011	1.89257757711493	-0.008965860439356862	0.3359704718365561	-0.6808792933208728	1.894565461938809	1.894565461938789	-0.2794278909731938	-0.0003131198987260599	0.511202737583371	0.1692651735745536	-0.2352626437486581	0.02521082255643481	0.02899864582586565	-0.2828047026702351	-0.0232071615095852	-0.01357103875712923	0.2681920565767111	-5.30307077147418	-51.56614999134541	-14.46236154257472	2.201741411821771	-2.39681037424771	-656.0202369207962	48.75927518300278	0.4845955033659838	0.6145125932513514	-0.2146508092763276	-1.794070937756661	-0.03534728553019102	-0.5066086958516509	1.988048410526803	-1.876524637014471	-1.876524637024884	0.4762078052432839	0.02577443700116902	-0.6956534662888076	-0.1457148604594546	-5.697757015522392e-09	1.344442144589235e-07	2.268028112069966e-06	1.276860652183109e-06	-3.418148122920551e-07	-1.639293236586355e-08	1.587088893661423e-06
